<?xml version="1.0" encoding="UTF-8" standalone="no"?>
<svg
   xmlns:osb="http://www.openswatchbook.org/uri/2009/osb"
   xmlns:dc="http://purl.org/dc/elements/1.1/"
   xmlns:cc="http://creativecommons.org/ns#"
   xmlns:rdf="http://www.w3.org/1999/02/22-rdf-syntax-ns#"
   xmlns:svg="http://www.w3.org/2000/svg"
   xmlns="http://www.w3.org/2000/svg"
   xmlns:sodipodi="http://sodipodi.sourceforge.net/DTD/sodipodi-0.dtd"
   xmlns:inkscape="http://www.inkscape.org/namespaces/inkscape"
   height="471.41745"
   viewBox="0 0 193.49615 133.04448"
   width="685.61627"
   xml:space="preserve"
   id="svg2"
   version="1.1"
   inkscape:version="0.91 r13725"
   sodipodi:docname="kokopelli-fondo-blanco.svg"
   style="fill-rule:evenodd;image-rendering:optimizeQuality;shape-rendering:geometricPrecision;text-rendering:geometricPrecision"
   inkscape:export-filename="/home/jorge2/Descargas/kokopelli-fondo-transparente.png"
   inkscape:export-xdpi="300"
   inkscape:export-ydpi="300"><metadata
     id="metadata25"><rdf:RDF><cc:Work
         rdf:about=""><dc:format>image/svg+xml</dc:format><dc:type
           rdf:resource="http://purl.org/dc/dcmitype/StillImage" /><dc:title></dc:title></cc:Work></rdf:RDF></metadata><sodipodi:namedview
     pagecolor="#ffffff"
     bordercolor="#666666"
     borderopacity="1"
     objecttolerance="10"
     gridtolerance="10"
     guidetolerance="10"
     inkscape:pageopacity="0"
     inkscape:pageshadow="2"
     inkscape:window-width="1920"
     inkscape:window-height="1008"
     id="namedview23"
     showgrid="false"
     inkscape:zoom="1"
     inkscape:cx="155.09555"
     inkscape:cy="208.85339"
     inkscape:window-x="0"
     inkscape:window-y="35"
     inkscape:window-maximized="1"
     inkscape:current-layer="layer1"
     fit-margin-top="0"
     fit-margin-left="0"
     fit-margin-right="0"
     fit-margin-bottom="0" /><defs
     id="defs4"><linearGradient
       id="linearGradient5621"
       osb:paint="solid"><stop
         style="stop-color:#000000;stop-opacity:1;"
         offset="0"
         id="stop5623" /></linearGradient><linearGradient
       id="linearGradient5615"
       osb:paint="solid"><stop
         style="stop-color:#6f6f6f;stop-opacity:1;"
         offset="0"
         id="stop5617" /></linearGradient><linearGradient
       id="linearGradient5609"
       osb:paint="solid"><stop
         style="stop-color:#000000;stop-opacity:1;"
         offset="0"
         id="stop5611" /></linearGradient><filter
       id="filter5405"><feGaussianBlur
         stdDeviation="3.75586"
         id="feGaussianBlur7" /></filter><pattern
       height="2"
       id="Checkerboard"
       patternTransform="matrix(10,0,0,10,0,0)"
       patternUnits="userSpaceOnUse"
       width="2"><path
         d="m0,0h1v1h-1z"
         id="path10" /><path
         d="m1,1h1v1h-1z"
         id="path12" /></pattern><pattern
       height="1"
       id="Strips1_1"
       patternTransform="matrix(10,0,0,10,0,0)"
       patternUnits="userSpaceOnUse"
       width="2"><path
         d="m0-.5h1v2h-1z"
         id="path15" /></pattern><clipPath
       clipPathUnits="userSpaceOnUse"
       id="clipPath3934-3"><rect
         style="fill:#696969;fill-opacity:0.90588235;stroke:#000000;stroke-width:1.9610914;stroke-miterlimit:4;stroke-dasharray:none;stroke-opacity:1"
         id="rect3936-6"
         width="738.01062"
         height="742.85712"
         x="-769.43915"
         y="455.21933"
         ry="9.0354605" /></clipPath><clipPath
       clipPathUnits="userSpaceOnUse"
       id="clipPath3934-3-3"><rect
         style="fill:#696969;fill-opacity:0.90588235;stroke:#000000;stroke-width:1.9610914;stroke-miterlimit:4;stroke-dasharray:none;stroke-opacity:1"
         id="rect3936-6-3"
         width="738.01062"
         height="742.85712"
         x="-769.43915"
         y="455.21933"
         ry="9.0354605" /></clipPath></defs><g
     inkscape:groupmode="layer"
     id="layer3"
     inkscape:label="Fondo"
     style="display:none"
     sodipodi:insensitive="true"
     transform="translate(-17.755888,-64.852299)"><rect
       style="fill:#000000;fill-opacity:1;stroke:#000000;stroke-width:0.17525999;stroke-miterlimit:4;stroke-dasharray:none;stroke-opacity:1"
       id="rect5667"
       width="377.70346"
       height="409.13437"
       x="-101.75086"
       y="-42.347115" /></g><g
     inkscape:groupmode="layer"
     id="layer1"
     inkscape:label="Kokopelli"
     style="display:inline"
     transform="translate(-17.755888,-64.852299)"><path
       style="display:inline;opacity:1;fill:#a0a0a0;fill-opacity:1;stroke:none;stroke-width:1.00065339;stroke-miterlimit:4;stroke-dasharray:none;stroke-opacity:1"
       d="m -938.79781,1113.5448 c -7.98179,-9.6175 1.25916,-26.751 24.50635,-45.4369 9.57589,-7.6971 17.41072,-16.6909 17.41072,-19.9862 0,-3.2953 -9.18002,-11.3714 -20.40004,-17.9467 -28.62594,-16.776 -61.6258,-53.62679 -76.04231,-84.91632 -10.46761,-22.71885 -12.24701,-32.92823 -12.31591,-70.66276 -0.072,-39.62964 1.3623,-47.17069 14.13334,-74.28571 25.04862,-53.18252 55.22165,-79.64877 117.13758,-102.74715 68.13918,-16.08138 40.95594,-56.02605 -7.28211,-48.87966 -12.61785,2.04759 -15.43403,1.40171 -11.41445,-2.61787 3.21543,-3.21543 19.20148,-5.05332 40.2243,-4.62453 58.71847,6.6491 16.65387,-23.47365 -12.17741,-23.98793 -29.38075,0 -27.34496,-9.31417 2.45861,-11.24871 63.1347,40.86726 84.84224,-12.8066 10.24458,-14.82273 -11.75724,0 -16.70904,-2.06389 -16.70904,-6.96428 98.02545,-3.01207 -74.76715,196.91268 92.47028,169.61133 -5.22656,33.38469 3.21446,155.56508 8.49078,181.35973 3.09704,15.14067 8.67955,-23.87957 12.36303,-41.4454 1.74028,-8.29911 10.32998,-45.20307 24.11402,-73.96752 13.78404,-28.76446 25.75134,-52.39794 26.57712,-54.29792 1.01015,-2.32421 6.29488,-11.22008 9.8446,-19.23692 3.41008,-7.70147 6.3465,-13.35377 9.23233,-18.01608 3.04725,-4.92311 8.07748,-9.36436 11.90783,-9.36436 11.6517,0 6.58902,23.53975 -14.35444,66.74333 -28.40622,58.59827 -46.0027,102.51164 -46.0027,114.80331 0,13.60119 11.15132,18.97533 20.58229,20.74477 6.35215,1.19179 7.24018,2.59854 16.4812,2.50432 13.38198,-0.13644 18.68977,0.57764 32.57937,-1.94527 5.32438,-0.96712 80.87674,-21.05523 94.9476,-18.36541 10.91783,2.08707 11.8402,0.95956 11.865,-14.50389 0.0502,-31.33524 8.43972,-68.26274 25.49267,-112.20992 18.55346,-47.81409 25.63758,-58.19203 36.799,-53.90898 10.16108,3.89917 9.18037,13.67649 -3.976,39.63936 -30.23466,59.66518 -40.92358,125.25498 -23.54681,144.48848 12.0654,13.35456 37.57497,10.49591 62.89024,-7.04757 35.67641,-24.72378 98.99073,-93.63249 116.00801,-126.25841 15.9705,-30.61903 27.96643,-40.05942 38.06776,-29.95808 3.17678,3.17677 -3.26012,19.52251 -19.82616,50.34613 -62.01706,115.39218 -79.27535,172.83643 -58.74255,195.52493 9.73807,10.76039 9.8222,13.19919 0.57776,16.74669 -17.54081,6.731 -34.4851,-18.03709 -34.4851,-50.40819 0,-8.093 3.27605,-25.74623 7.28014,-39.22944 4.00409,-13.4832 6.23062,-25.56447 4.9478,-26.84726 -2.35694,-2.35694 -33.83199,19.56872 -42.40651,29.54056 -11.01959,12.81533 -38.28077,24.74542 -56.58259,24.76176 -16.40335,0.0148 -21.96443,-2.65869 -35.60352,-17.11539 -13.03066,-13.81183 -17.44617,-16.06842 -22.77986,-11.64185 -8.45358,7.01585 -55.05227,14.55452 -74.25766,18.50461 -18.87955,3.88307 -47.7162,9.99551 -58.27152,12.47062 -10.00329,2.34567 -16.35223,2.74583 -24.59711,3.09285 -5.19494,0.21865 -15.78604,-0.86341 -19.25323,-3.48679 -3.33768,-2.52538 -7.02258,-5.02858 -9.0707,-8.47947 -27.26443,-45.9379 -16.62019,-7.03064 -24.802,1.15117 -37.5031,34.65878 -4.95148,16.09152 -12.42867,29.65889 26.22197,33.04863 8.17867,56.20023 -13.80248,86.20033 -18.7547,25.3938 -18.75816,25.3785 7.0257,31.0476 9.07211,1.9947 12.61417,5.3123 11.56708,10.8342 -1.09964,5.799 -7.06761,8.3571 -21.98964,9.4253 -49.66055,3.5552 -54.29639,-7.0497 -23.553,-53.8797 32.86689,-50.0645 32.0893,-53.17709 -14.74666,-59.02889 -23.18687,-2.897 -26.71974,-2.0974 -39.03144,8.83419 l -13.53698,12.0194 15.13115,12.7944 c 8.32212,7.037 15.1123,16.3263 15.08928,20.643 -0.0232,4.3168 -10.53755,16.6988 -23.36562,27.5156 -24.5531,20.7035 -24.94819,25.6373 -2.25165,28.1179 8.76484,0.9579 14.45734,4.5155 15.42972,9.6429 1.33843,7.0577 -2.39362,8.125 -28.40966,8.125 -21.25441,0 -31.66682,-2.068 -35.86171,-7.1225 z m 151.48849,-153.05599 c 0,-8.93753 -1.59792,-16.25003 -3.55093,-16.25003 -7.36938,0 -12.94799,-18.6183 -18.23246,-60.84974 -3.00164,-23.988 -7.17617,-45.80774 -9.27675,-48.48832 -2.10057,-2.68057 -14.36791,-7.57731 -27.26075,-10.88165 -19.32084,-4.95178 -26.04504,-9.63321 -38.25223,-26.63143 -8.41583,-11.71883 -17.87337,-20.03373 -21.90389,-19.25753 -3.90125,0.75132 -11.81623,9.70544 -17.58885,19.89806 -19.83461,35.02166 -11.33662,82.16628 21.56547,119.6397 19.75275,22.49713 40.64726,34.88294 80.77383,47.88094 18.29425,5.926 33.36674,10.868 33.49442,10.9822 0.12768,0.1143 0.23214,-7.1047 0.23214,-16.0422 z m -21.05122,-170.0771 c 3.97918,-15.00412 1.43774,-19.22343 -17.3876,-28.86704 -8.11814,-4.15866 -16.03249,-11.56967 -17.58745,-16.46891 -6.7432,-21.24594 -30.33087,-14.12559 -30.33087,9.15591 0,20.16956 9.9214,37.47522 25.42318,44.34504 21.14998,9.3729 36.04004,6.32453 39.88274,-8.165 z m 522.31162,214.66329 c -1.63048,-2.6382 9.12693,-12.50069 23.90537,-21.91659 88.60092,-56.45124 107.84252,-72.39459 133.20322,-110.3711 17.2436,-25.82135 16.5619,-58.10275 -2.0961,-99.27547 -16.3598,-36.10121 -36.6762,-59.08445 -58.6346,-66.33138 -17.1202,-5.65017 -18.8967,-9.63688 -8.2367,-18.4839 5.898,-4.89493 9.9652,-4.64022 22.6734,1.4199 27.2028,12.97212 47.4924,34.95872 65.0482,70.4888 31.83173,64.42244 23.74383,109.30353 -30.0562,166.78837 -26.1993,27.99378 -88.21594,67.45418 -116.65353,74.22527 -6.78507,1.6156 -15.45324,4.1334 -19.26252,5.5952 -3.80928,1.4617 -8.26002,0.4992 -9.89054,-2.1391 z m -21.05341,-48.06839 c 0.0747,-5.74551 9.69875,-28.20533 21.38714,-49.91069 11.68834,-21.70535 29.56395,-55.13393 39.72354,-74.28571 10.15955,-19.15179 22.30542,-39 26.99092,-44.10715 5.7446,-6.26169 7.7078,-13.44373 6.0282,-22.05357 -2.0857,-10.69155 -0.8927,-12.76785 7.3362,-12.76785 7.2118,0 9.827,2.89548 9.827,10.8803 0,17.15767 -15.5516,57.98169 -38.36811,100.71872 -51.28629,96.06315 -55.00002,101.97245 -64.08531,101.97245 -6.25248,0 -8.93401,-3.169 -8.83958,-10.4465 z"
       id="path3017-5"
       inkscape:connector-curvature="0"
       clip-path="url(#clipPath3934-3-3)"
       sodipodi:nodetypes="sssssssccsccccccsssssssssssssssssssssssssssssssssssscccsssssscscssssssssssssssscssssssssssssssssscscssssssssc"
       transform="matrix(0.19948757,0,0,0.2098487,229.5054,-52.796896)" /><path
       style="opacity:1;fill:#a0a0a0;fill-opacity:1;fill-rule:nonzero;stroke:none;stroke-width:0.91177428;stroke-miterlimit:4;stroke-dasharray:none;stroke-opacity:1"
       inkscape:connector-curvature="0"
       id="path21"
       d="M 92.273418,126.29528 57.685055,93.794748 c 0,0 3.399605,-3.26843 1.199618,-7.149564 l 15.735345,-16.382861 -7.10614,-3.293071 c 0,0 -11.263463,19.213882 -10.994098,16.653636 l 1.961152,-18.634062 -7.88552,-0.136527 c 0,0 5.839154,17.210566 3.311628,16.380647 -1.361481,-0.447046 -3.801168,-0.422695 -4.734454,-0.08886 l -7.481489,-13.829412 -5.730745,4.882273 c 0,0 11.457749,8.057996 9.85268,10.130988 l -2.09899,1.333731 -13.504805,-4.97262 -3.535226,6.681418 c 0,0 14.134587,-1.881221 14.842651,0.596624 -1.421594,3.59412 -1.545498,6.89621 3.31113,11.02668 l -3.724967,7.068102 c 0,0 -10.56253,3.90316 -16.497738,10.9272 -11.66006,13.79914 -7.684306,35.39345 6.268869,48.52683 3.678776,3.46264 10.570863,4.53603 21.828088,1.15855 l 2.167575,33.22233 c 9.69512,-3.9283 13.876048,-5.79793 13.876048,-5.79793 l -0.149006,-2.83297 -9.902735,3.45144 3.721106,-31.10763 -9.240552,-2.59348 5.462029,-7.99408 12.197596,0.23636 0.920809,22.16155 13.704154,2.9167 c 0,0 0.0771,-4.18579 -8.3866,-7.32625 0.83427,-9.07913 1.96807,-30.82536 1.96807,-30.82536 0,0 -36.390495,16.07163 -42.169223,4.89697 -13.616615,-15.48116 8.963264,-44.656472 22.100066,-6.51665 l 18.231417,-17.19825 8.33254,8.63545 z m -19.835854,-9.9052 -10.117262,10.09526 c 0,0 -0.587253,-17.74289 -13.627077,-20.82283 0.574611,-4.42324 1.291379,-7.605662 1.291379,-7.605662 l 5.801271,-2.25656 z"
       sodipodi:nodetypes="ccccccccscccsccccccsscccccccccccccccccccccccc" /></g><g
     inkscape:groupmode="layer"
     id="layer2"
     inkscape:label="Créditos"
     style="display:none"
     sodipodi:insensitive="true"
     transform="translate(-17.755888,-64.852299)"><text
       xml:space="preserve"
       style="font-style:normal;font-weight:normal;font-size:11.28888798px;line-height:125%;font-family:sans-serif;letter-spacing:0px;word-spacing:0px;fill:#000000;fill-opacity:1;stroke:none;stroke-width:1px;stroke-linecap:butt;stroke-linejoin:miter;stroke-opacity:1"
       x="-52.739975"
       y="255.44731"
       id="text3358"
       sodipodi:linespacing="125%"><tspan
         sodipodi:role="line"
         x="-52.739975"
         y="255.44731"
         id="tspan3362">CC 0 https://pixabay.com/en/kokopelli-hopi-southwestern-blue-36745/</tspan></text>
</g></svg>
