<?xml version="1.0" encoding="UTF-8" standalone="no"?>
<!-- Created with Inkscape (http://www.inkscape.org/) -->

<svg
   xmlns:dc="http://purl.org/dc/elements/1.1/"
   xmlns:cc="http://creativecommons.org/ns#"
   xmlns:rdf="http://www.w3.org/1999/02/22-rdf-syntax-ns#"
   xmlns:svg="http://www.w3.org/2000/svg"
   xmlns="http://www.w3.org/2000/svg"
   xmlns:xlink="http://www.w3.org/1999/xlink"
   xmlns:sodipodi="http://sodipodi.sourceforge.net/DTD/sodipodi-0.dtd"
   xmlns:inkscape="http://www.inkscape.org/namespaces/inkscape"
   width="132.49997mm"
   height="57.254589mm"
   viewBox="0 0 132.49997 57.254589"
   version="1.1"
   id="svg8"
   inkscape:version="0.92.3 (2405546, 2018-03-11)"
   sodipodi:docname="qgis-col.svg">
  <defs
     id="defs2">
    <linearGradient
       gradientTransform="matrix(0.26458333,0,0,0.26458333,-8.2774087,26.608023)"
       id="SVGID_1_"
       gradientUnits="userSpaceOnUse"
       x1="350.02249"
       y1="247.7832"
       x2="347.78201"
       y2="100.4837">
      <stop
         offset="0"
         style="stop-color:#589632"
         id="stop6" />
      <stop
         offset="1"
         style="stop-color:#93B023"
         id="stop8" />
    </linearGradient>
    <linearGradient
       gradientTransform="matrix(0.26458333,0,0,0.26458333,-8.2774087,26.608023)"
       id="SVGID_2_"
       gradientUnits="userSpaceOnUse"
       x1="459.22171"
       y1="246.1226"
       x2="456.98129"
       y2="98.822403">
      <stop
         offset="0"
         style="stop-color:#589632"
         id="stop13" />
      <stop
         offset="1"
         style="stop-color:#93B023"
         id="stop15" />
    </linearGradient>
    <linearGradient
       gradientTransform="matrix(0.26458333,0,0,0.26458333,-8.2774087,26.608023)"
       id="SVGID_3_"
       gradientUnits="userSpaceOnUse"
       x1="553.50677"
       y1="244.6875"
       x2="551.26642"
       y2="97.388199">
      <stop
         offset="0"
         style="stop-color:#589632"
         id="stop20" />
      <stop
         offset="1"
         style="stop-color:#93B023"
         id="stop22" />
    </linearGradient>
    <linearGradient
       id="SVGID_4_"
       gradientUnits="userSpaceOnUse"
       x1="234.4702"
       y1="250.03419"
       x2="232.211"
       y2="101.4977">
      <stop
         offset="0"
         style="stop-color:#589632"
         id="stop27" />
      <stop
         offset="1"
         style="stop-color:#93B023"
         id="stop29" />
    </linearGradient>
    <linearGradient
       gradientTransform="matrix(0.26458333,0,0,0.26458333,-8.2774087,26.608023)"
       id="SVGID_5_"
       gradientUnits="userSpaceOnUse"
       x1="188.7529"
       y1="250.2354"
       x2="186.5125"
       y2="102.9362">
      <stop
         offset="0"
         style="stop-color:#589632"
         id="stop36" />
      <stop
         offset="1"
         style="stop-color:#93B023"
         id="stop38" />
    </linearGradient>
    <linearGradient
       inkscape:collect="always"
       xlink:href="#SVGID_5_"
       id="linearGradient875"
       x1="79.676582"
       y1="118.7276"
       x2="79.31768"
       y2="101.41189"
       gradientUnits="userSpaceOnUse"
       gradientTransform="matrix(0.8863736,0,0,0.88637361,1.7563677,10.090271)" />
    <linearGradient
       inkscape:collect="always"
       xlink:href="#SVGID_5_"
       id="linearGradient4590"
       gradientUnits="userSpaceOnUse"
       gradientTransform="matrix(0.26458333,0,0,0.26458333,-8.2774087,26.608023)"
       x1="188.7529"
       y1="250.2354"
       x2="186.5125"
       y2="102.9362" />
  </defs>
  <sodipodi:namedview
     id="base"
     pagecolor="#ffffff"
     bordercolor="#666666"
     borderopacity="1.0"
     inkscape:pageopacity="0.0"
     inkscape:pageshadow="2"
     inkscape:zoom="1.979899"
     inkscape:cx="293.83632"
     inkscape:cy="65.690371"
     inkscape:document-units="mm"
     inkscape:current-layer="layer1"
     showgrid="false"
     fit-margin-top="0"
     fit-margin-left="0"
     fit-margin-right="0"
     fit-margin-bottom="0"
     inkscape:window-width="1920"
     inkscape:window-height="1018"
     inkscape:window-x="0"
     inkscape:window-y="34"
     inkscape:window-maximized="1" />
  <metadata
     id="metadata5">
    <rdf:RDF>
      <cc:Work
         rdf:about="">
        <dc:format>image/svg+xml</dc:format>
        <dc:type
           rdf:resource="http://purl.org/dc/dcmitype/StillImage" />
        <dc:title></dc:title>
      </cc:Work>
    </rdf:RDF>
  </metadata>
  <g
     inkscape:label="Layer 1"
     inkscape:groupmode="layer"
     id="layer1"
     transform="translate(-21.062519,-52.739596)">
    <text
       xml:space="preserve"
       style="font-style:normal;font-weight:normal;font-size:21.37784004px;line-height:0;font-family:sans-serif;letter-spacing:0px;word-spacing:0px;fill:url(#linearGradient875);fill-opacity:1;stroke:none;stroke-width:0.2226858"
       x="18.934988"
       y="115.53673"
       id="text817"
       transform="scale(1.0531415,0.94954001)"><tspan
         sodipodi:role="line"
         id="tspan815"
         x="18.934988"
         y="115.53673"
         style="font-style:normal;font-variant:normal;font-weight:bold;font-stretch:normal;line-height:60.71901703px;font-family:sans-serif;-inkscape-font-specification:'sans-serif Bold';fill:url(#linearGradient875);fill-opacity:1;stroke-width:0.2226858">COLOMBIA</tspan></text>
    <g
       id="g4608">
      <polygon
         id="polygon3"
         points="216.513,180 198.306,162 176,162 176,183.433 195,202.37 195,180 "
         style="fill:#fcd116;fill-opacity:1"
         transform="matrix(0.26458333,0,0,0.26458333,-8.2774087,26.608023)" />
      <path
         id="path10"
         d="M 101.32518,71.887492 V 86.2676 c -3.955787,2.88687 -9.996487,4.86463 -15.181797,4.86463 -11.33289,0 -19.93952,-8.23199 -19.93952,-19.084136 0,-10.798439 8.76696,-18.977239 20.42107,-18.977239 5.55969,0 11.22547,2.138362 15.021187,5.452533 l -4.757737,6.040966 c -2.77998,-2.565929 -6.62834,-4.169833 -10.26345,-4.169833 -6.62914,0 -11.761,5.078412 -11.761,11.653573 0,6.628606 5.18557,11.707546 11.81391,11.707546 2.24526,0 4.91834,-0.80195 7.32393,-2.03147 v -9.836414 h 7.323407 z"
         style="fill:url(#SVGID_1_);stroke-width:0.26458332"
         inkscape:connector-curvature="0" />
      <path
         id="path17"
         d="M 108.70255,90.75784 V 53.337819 h 8.44603 V 90.75784 Z"
         style="fill:url(#SVGID_2_);stroke-width:0.26458332"
         inkscape:connector-curvature="0" />
      <path
         id="path24"
         d="m 153.33829,57.026375 -3.26072,7.002727 c -3.95579,-2.352145 -8.66008,-3.848893 -11.65358,-3.848893 -2.83315,0 -4.75747,1.015735 -4.75747,3.047206 0,6.8961 19.93953,3.047206 19.88608,16.518205 0,7.32366 -6.3619,11.27945 -14.64733,11.27945 -6.14786,0 -12.29545,-2.35215 -16.5182,-5.93381 l 3.36762,-6.895837 c 3.84915,3.421597 9.30142,5.613137 13.25721,5.613137 3.47504,0 5.55969,-1.28297 5.55969,-3.58167 0,-7.056169 -19.93953,-2.940046 -19.93953,-16.197523 0,-6.788944 5.82692,-11.065669 14.48726,-11.065669 5.23875,-2.64e-4 10.47723,1.60364 14.21897,4.062677 z"
         style="fill:url(#SVGID_3_);stroke-width:0.26458332"
         inkscape:connector-curvature="0" />
      <polygon
         id="polygon31"
         points="225.617,189 204,189 204,211.34 240.782,248 264,248 264,226.946 "
         style="fill:#ce1126;fill-opacity:1"
         transform="matrix(0.26458333,0,0,0.26458333,-8.2774087,26.608023)" />
      <polygon
         id="polygon33"
         points="195,202.37 204,211.34 204,189 225.617,189 216.513,180 195,180 "
         style="fill:#003893;fill-opacity:1"
         transform="matrix(0.26458333,0,0,0.26458333,-8.2774087,26.608023)" />
      <path
         id="path40"
         d="m 44.123849,83.98662 c -0.862277,0.19844 -1.75895,0.30613 -2.683933,0.30613 -6.615906,0 -12.242535,-5.440367 -12.242535,-12.494158 0,-7.053792 5.564716,-12.374298 12.242535,-12.374298 6.677817,0 11.995147,5.320242 11.995147,12.374298 0,1.147233 -0.14287,2.251075 -0.40719,3.296708 l 6.12352,6.12246 c 1.57877,-2.76622 2.46194,-5.982495 2.46194,-9.466264 0,-10.871729 -8.67595,-19.0119 -20.297242,-19.0119 -11.568112,0 -20.2438,8.086725 -20.2438,19.0119 0,10.978624 8.675952,19.226214 20.2438,19.226214 2.986352,0 5.777182,-0.54928 8.277222,-1.54887 z"
         style="fill:url(#linearGradient4590);stroke-width:0.26458332"
         inkscape:connector-curvature="0" />
      <path
         sodipodi:nodetypes="ccccccc"
         inkscape:connector-curvature="0"
         style="fill:#ffffff;fill-opacity:0.17254902;stroke-width:0.26458332"
         id="polygon4174"
         d="M 38.289258,69.470523 61.572593,92.22469 v -5.57072 l -10.15545,-10.039697 -2.40864,-2.38125 -4.81728,-4.7625 z" />
    </g>
  </g>
</svg>
